<?xml version="1.0" standalone="no"?><!DOCTYPE svg PUBLIC "-//W3C//DTD SVG 1.1//EN" "http://www.w3.org/Graphics/SVG/1.1/DTD/svg11.dtd"><svg t="1541662562158" class="icon" style="" viewBox="0 0 1024 1024" version="1.1" xmlns="http://www.w3.org/2000/svg" p-id="4395" xmlns:xlink="http://www.w3.org/1999/xlink" width="200" height="200"><defs><style type="text/css">:not([class*="ico"]):not(i) { font-family: "NoForceAllFonts By Plus.Func.Fonts.CN", "NoForceAllFonts By Plus.Func.Fonts.CN.FallBack", "NoForceAllFonts By Microsoft YaHei", HighLevelEmoji, "Catcat520.Lite.Latin", "SDF.TypeSetCtrlFonts", "SDF.CnSymbol", "SDF.EnSymbol", "SDF.Number", 此处填写英文字体, 此处填写font-family的名称, SDF-FixEnglishFonts, Verdana, Inconsolata, "Envy Code R", "Open Sans", Roboto, "Segoe UI", "Helvetica Neue", "Lucida Grande", Ubuntu, Tahoma, Verdana, Menlo, Monaco, "/*UseJPFakeName By CnFonts", 此处填写中文字体, "SDF.FixScTcFonts", "SDF.Hangul", "Plus.Func.Fonts.CN", "Microsoft YaHei", "Plus.Func.Fonts.CN.FallBack", "Microsoft YaHei", "Microsoft JhengHei", "Microsoft YaHei UI", "Microsoft JhengHei UI", fp-font, AccessibilityFoundicons, "Accessibility Foundicons", anchorjs-icons, brandico, Brandico, brankic1979, Brankic1979, "brankic 1979", "Brankic 1979", broccolidry, Broccolidry, chagaan, CONDENSEicon, cuticons, Cuticons, dashicons, duotai, duotai-status, "Dot Com", ecoico, Ecoico, EightiesShades, ElegantIcons, elusive, Elusive, Elusive-Icons, entypo, Entypo, "Entypo Social", Entypo-Social, "Erler Dingbats", et-line, Et-line, FabricMDL2Icons, feedfont, fontawesome, FontAwesome, fontelico, Fontelico, fontello, Fontello, Garqag, GeneralEnclosedFoundicons, "General Enclosed Foundicons", GeneralFoundicons, "General Foundicons", Gibson, "Gibson Light", gibson_lightbold, Gibson_lightbold, gibson_lightitalic, Gibson_lightitalic, gibsonregular, Gibsonregular, "Glyphicons Halflings", "GLYPHICONS Halflings", "Heydings Controls", "Heydings Icons", icft_temai, icft_temai_index, iconminia, Iconminia, iconvault, Iconvault, icomoon, Icomoon, iconfont, iconfont-tcl, iconic, Iconic, icons, Icons, ifanrx, iknow-qb_share_icons, "Just Vector", JustVector, JustVectorRegular, LenovoSupport, linecons, Linecons, lobi-pc, LondonMM, londonmmregular, Londonmmregular, mainicon, maki, Maki, Mainicon, "Material Icons Extended", Material-Design-Icons, MENKSOF0, Menksoft2007, Menksoft2012, MenksoftQagan, meteocons, Meteocons, MeteoconsRegular, mfglabs, Mfglabs, "MFG Labs Iconset", mfg_labs_iconsetregular, Mfg_labs_iconsetregular, modernpics, Modernpics, "Modern Pictograms", o365Icons, Office365Icons, "OpenWeb Icons", PulsarJS, RaphaelIcons, rondo, Rondo, sellerCenter, sdp-icons, silkcons, Silkcons, SocialFoundicons, "Social Foundicons", Socialico, "Socialico Plus", "Social Networking Icons", Sosa, "Symbol Signs", "Symbol Signs Basis set", typicons, Typicons, VideoJS, weathercons, Weathercons, websymbols, Websymbols, "Web Symbols", "Web Symbols Liga", wpzoom, Wpzoom, Yglyphs-legacy, youkuMobile, zocial, Zocial, "PingFang SC", "PingFang TC", "PingFang HK", "Noto Sans CJK SC", "Noto Sans CJK TC", "Noto Sans CJK JP", "Source Han Sans SC", "Source Han Sans TC", "Source Han Sans", SimSun, LowLevelEmoji, "Segoe UI Symbol", "Segoe UI Historic", Symbola, Quivira, Meiryo, "Malgun Gothic", NSimSun, MingLiU, MingLiU_HKSCS, SimSun-ExtB, MingLiU-ExtB, MingLiU_HKSCS-ExtB, "Nimbus Roman No9 L", "WenQuanYi Micro Hei", "WenQuanYi Zen Hei", "Droid Sans Fallback", "Hiragino Sans GB", Symbol, FZSongS, "Simsun (Founder Extended)", "Microsoft Himalaya", "Microsoft New Tai Lue", "Microsoft PhagsPa", "Microsoft Tai Le", "Microsoft Uighur", "Microsoft Yi Baiti", "Mongolian Baiti", "Estrangelo Edessa", Ebrima, Euphemia, Nyala, "Plantagenet Cherokee", sylfaen, "Arial Unicode MS", Code2000, HanaMinA, HanaMinB, Unifont !important; }
:not([class*="icon"]):not(i) { font-family: 微软雅黑 !important; }
* { text-shadow: rgb(153, 153, 153) 0.01em 0.01em 0.01em !important; }
</style></defs><path d="M864 64l-704 0C142.336 64 128 78.336 128 96l0 832C128 945.664 142.336 960 160 960l704 0c17.664 0 32-14.336 32-32l0-832C896 78.336 881.664 64 864 64zM832 896 192 896 192 128l640 0L832 896z" p-id="4396"></path><path d="M353.92 320c17.6 0 32-14.336 32-32S371.584 256 353.92 256L353.28 256C335.616 256 321.6 270.336 321.6 288S336.256 320 353.92 320z" p-id="4397"></path><path d="M353.92 512c17.6 0 32-14.336 32-32S371.584 448 353.92 448L353.28 448C335.616 448 321.6 462.336 321.6 480S336.256 512 353.92 512z" p-id="4398"></path><path d="M353.92 704c17.6 0 32-14.336 32-32S371.584 640 353.92 640L353.28 640c-17.6 0-31.616 14.336-31.616 32S336.256 704 353.92 704z" p-id="4399"></path><path d="M480 320l192 0C689.664 320 704 305.664 704 288S689.664 256 672 256l-192 0C462.336 256 448 270.336 448 288S462.336 320 480 320z" p-id="4400"></path><path d="M480 512l192 0C689.664 512 704 497.664 704 480S689.664 448 672 448l-192 0C462.336 448 448 462.336 448 480S462.336 512 480 512z" p-id="4401"></path><path d="M480 704l192 0c17.664 0 32-14.336 32-32S689.664 640 672 640l-192 0C462.336 640 448 654.336 448 672S462.336 704 480 704z" p-id="4402"></path></svg>