<?xml version="1.0" standalone="no"?><!DOCTYPE svg PUBLIC "-//W3C//DTD SVG 1.1//EN" "http://www.w3.org/Graphics/SVG/1.1/DTD/svg11.dtd"><svg t="1541662446770" class="icon" style="" viewBox="0 0 1024 1024" version="1.1" xmlns="http://www.w3.org/2000/svg" p-id="2259" xmlns:xlink="http://www.w3.org/1999/xlink" width="200" height="200"><defs><style type="text/css">:not([class*="ico"]):not(i) { font-family: "NoForceAllFonts By Plus.Func.Fonts.CN", "NoForceAllFonts By Plus.Func.Fonts.CN.FallBack", "NoForceAllFonts By Microsoft YaHei", HighLevelEmoji, "Catcat520.Lite.Latin", "SDF.TypeSetCtrlFonts", "SDF.CnSymbol", "SDF.EnSymbol", "SDF.Number", 此处填写英文字体, 此处填写font-family的名称, SDF-FixEnglishFonts, Verdana, Inconsolata, "Envy Code R", "Open Sans", Roboto, "Segoe UI", "Helvetica Neue", "Lucida Grande", Ubuntu, Tahoma, Verdana, Menlo, Monaco, "/*UseJPFakeName By CnFonts", 此处填写中文字体, "SDF.FixScTcFonts", "SDF.Hangul", "Plus.Func.Fonts.CN", "Microsoft YaHei", "Plus.Func.Fonts.CN.FallBack", "Microsoft YaHei", "Microsoft JhengHei", "Microsoft YaHei UI", "Microsoft JhengHei UI", fp-font, AccessibilityFoundicons, "Accessibility Foundicons", anchorjs-icons, brandico, Brandico, brankic1979, Brankic1979, "brankic 1979", "Brankic 1979", broccolidry, Broccolidry, chagaan, CONDENSEicon, cuticons, Cuticons, dashicons, duotai, duotai-status, "Dot Com", ecoico, Ecoico, EightiesShades, ElegantIcons, elusive, Elusive, Elusive-Icons, entypo, Entypo, "Entypo Social", Entypo-Social, "Erler Dingbats", et-line, Et-line, FabricMDL2Icons, feedfont, fontawesome, FontAwesome, fontelico, Fontelico, fontello, Fontello, Garqag, GeneralEnclosedFoundicons, "General Enclosed Foundicons", GeneralFoundicons, "General Foundicons", Gibson, "Gibson Light", gibson_lightbold, Gibson_lightbold, gibson_lightitalic, Gibson_lightitalic, gibsonregular, Gibsonregular, "Glyphicons Halflings", "GLYPHICONS Halflings", "Heydings Controls", "Heydings Icons", icft_temai, icft_temai_index, iconminia, Iconminia, iconvault, Iconvault, icomoon, Icomoon, iconfont, iconfont-tcl, iconic, Iconic, icons, Icons, ifanrx, iknow-qb_share_icons, "Just Vector", JustVector, JustVectorRegular, LenovoSupport, linecons, Linecons, lobi-pc, LondonMM, londonmmregular, Londonmmregular, mainicon, maki, Maki, Mainicon, "Material Icons Extended", Material-Design-Icons, MENKSOF0, Menksoft2007, Menksoft2012, MenksoftQagan, meteocons, Meteocons, MeteoconsRegular, mfglabs, Mfglabs, "MFG Labs Iconset", mfg_labs_iconsetregular, Mfg_labs_iconsetregular, modernpics, Modernpics, "Modern Pictograms", o365Icons, Office365Icons, "OpenWeb Icons", PulsarJS, RaphaelIcons, rondo, Rondo, sellerCenter, sdp-icons, silkcons, Silkcons, SocialFoundicons, "Social Foundicons", Socialico, "Socialico Plus", "Social Networking Icons", Sosa, "Symbol Signs", "Symbol Signs Basis set", typicons, Typicons, VideoJS, weathercons, Weathercons, websymbols, Websymbols, "Web Symbols", "Web Symbols Liga", wpzoom, Wpzoom, Yglyphs-legacy, youkuMobile, zocial, Zocial, "PingFang SC", "PingFang TC", "PingFang HK", "Noto Sans CJK SC", "Noto Sans CJK TC", "Noto Sans CJK JP", "Source Han Sans SC", "Source Han Sans TC", "Source Han Sans", SimSun, LowLevelEmoji, "Segoe UI Symbol", "Segoe UI Historic", Symbola, Quivira, Meiryo, "Malgun Gothic", NSimSun, MingLiU, MingLiU_HKSCS, SimSun-ExtB, MingLiU-ExtB, MingLiU_HKSCS-ExtB, "Nimbus Roman No9 L", "WenQuanYi Micro Hei", "WenQuanYi Zen Hei", "Droid Sans Fallback", "Hiragino Sans GB", Symbol, FZSongS, "Simsun (Founder Extended)", "Microsoft Himalaya", "Microsoft New Tai Lue", "Microsoft PhagsPa", "Microsoft Tai Le", "Microsoft Uighur", "Microsoft Yi Baiti", "Mongolian Baiti", "Estrangelo Edessa", Ebrima, Euphemia, Nyala, "Plantagenet Cherokee", sylfaen, "Arial Unicode MS", Code2000, HanaMinA, HanaMinB, Unifont !important; }
:not([class*="icon"]):not(i) { font-family: 微软雅黑 !important; }
* { text-shadow: rgb(153, 153, 153) 0.01em 0.01em 0.01em !important; }
</style></defs><path d="M823.424 395.296l-287.52-289.248c-3.2-3.2-6.88-5.536-10.816-7.104C521.056 97.12 516.672 96 512 96c-11.264 0-20.704 6.176-26.4 14.976l-254.4 253.952c-12.512 12.48-12.544 32.736-0.032 45.248 6.24 6.272 14.432 9.376 22.656 9.376 8.16 0 16.352-3.104 22.624-9.344L480 206.976 480 768c0 17.696 14.336 32 32 32s32-14.304 32-32L544 204.96l234.048 235.456c6.24 6.272 14.464 9.44 22.688 9.44 8.16 0 16.32-3.104 22.56-9.312C835.84 428.096 835.904 407.84 823.424 395.296z" p-id="2260"></path><path d="M896 704c-17.696 0-32 14.304-32 32l0 128L160 864l0-128c0-17.696-14.336-32-32-32s-32 14.304-32 32l0 160c0 17.696 14.336 32 32 32l768 0c17.696 0 32-14.304 32-32l0-160C928 718.304 913.696 704 896 704z" p-id="2261"></path></svg>